<svg xmlns="http://www.w3.org/2000/svg" width="2200" height="1448" fill="none"><path fill="#D79B83" d="M0 0h2200v1448H0z"/><path fill="#fff" d="M949.967 664.375v6.598h-33.118v-6.598c0-17.846-14.49-32.312-32.365-32.312s-32.366 14.466-32.366 32.312v6.598H819v-6.598C819 628.269 848.318 599 884.484 599c36.165 0 65.483 29.269 65.483 65.375z"/><path fill="#fff" fill-rule="evenodd" d="M916.849 819.94v30.057h33.118v-99.941c0-36.105-29.318-65.374-65.483-65.374-36.166 0-65.484 29.269-65.484 65.374v99.941h33.118V819.94h64.731zm0-30.058v-39.826c0-17.845-14.49-32.311-32.365-32.311s-32.366 14.466-32.366 32.311v39.826h64.731z" clip-rule="evenodd"/><path fill="#fff" d="M1064.38 684.685v99.94c0 17.846-14.49 32.312-32.37 32.312-17.87 0-32.363-14.466-32.363-32.312v-99.94h-33.118v99.94c0 36.106 29.318 65.375 65.481 65.375 36.17 0 65.49-29.269 65.49-65.375v-99.94h-33.12z"/><path fill="#fff" fill-rule="evenodd" d="M1348.88 849.997V819.94h-64.73v30.057h-33.12v-99.941c0-36.105 29.32-65.374 65.49-65.374 36.16 0 65.48 29.269 65.48 65.374v99.941h-33.12zm0-99.941v39.826h-64.73v-39.826c0-17.845 14.49-32.311 32.37-32.311 17.87 0 32.36 14.466 32.36 32.311z" clip-rule="evenodd"/><path fill="#fff" d="M1117.06 684.682h33.12v165.315h-33.12V684.682z"/><path fill="#fff" d="m1143.42 814.918 3.34 2.019 3.43-.006h17.31c17.62 0 31.95 14.063 32.35 31.562h33.12c-.22-19.533-9.02-37.008-22.81-48.846 13.97-11.99 22.81-29.759 22.81-49.591 0-36.105-29.32-65.374-65.48-65.374h-17.3l-3.43 33.063h20.73c17.87 0 32.36 14.466 32.36 32.311 0 17.846-14.49 32.312-32.36 32.312h-20.73l-3.34 32.55z"/></svg>