<svg width="16" height="16" viewBox="0 0 16 16" fill="none" xmlns="http://www.w3.org/2000/svg">
<path d="M14.7386 15.9934C12.847 15.8578 10.9961 15.3777 9.27705 14.5769C7.55482 13.775 5.9878 12.6751 4.64824 11.328C3.30207 9.99009 2.20571 8.4225 1.41082 6.69905C0.617669 4.97791 0.142045 3.12761 0.00686854 1.23734C-0.0110808 1.07965 0.0062566 0.919949 0.0576254 0.76979C0.108994 0.619632 0.193109 0.482775 0.30388 0.369128C0.410208 0.250755 0.540687 0.156564 0.686515 0.0929106C0.832342 0.0292574 0.990126 -0.00237787 1.14922 0.000139246H4.3855C4.65624 0.000139246 4.88928 0.0823905 5.08805 0.249178C5.28681 0.415965 5.41704 0.626163 5.48101 0.879771L6.05219 3.42728C6.08417 3.6329 6.07161 3.83168 6.01678 4.02131C5.96754 4.2009 5.87316 4.3649 5.74261 4.49769L3.43506 6.83042C3.75149 7.43246 4.11591 8.01164 4.52829 8.56684C4.94182 9.12318 5.40105 9.64639 5.9094 10.1388C6.38576 10.614 6.89296 11.0549 7.43215 11.4593C7.97134 11.8637 8.54251 12.2247 9.14568 12.5423L11.5023 10.2576C11.6348 10.1272 11.7984 10.0328 11.9776 9.98339C12.1683 9.92741 12.366 9.91599 12.5727 9.94798L15.1202 10.4952C15.3886 10.5751 15.6034 10.7134 15.7622 10.9121C15.9208 11.111 16.0049 11.3592 15.9998 11.6136V14.8511C16.0019 15.0112 15.969 15.1699 15.9033 15.3159C15.8376 15.462 15.7407 15.5918 15.6194 15.6964C15.503 15.807 15.3639 15.8908 15.2118 15.9421C15.0597 15.9934 14.8982 16.0109 14.7386 15.9934Z" fill="#141414"/>
</svg>
