<svg width="1920" height="56" viewBox="0 0 1920 56" fill="none" xmlns="http://www.w3.org/2000/svg">
<g clip-path="url(#clip0_171_1279)">
<path d="M1.99609 31.8181H234.26V20.7878H236.256V31.8181H238.918V20.7878H240.914V31.8181H248.235V20.7878H249.567V31.8181H250.898V20.7878H253.56V31.8181H256.221V20.7878H260.881V31.8181H263.542V20.7878H265.539V31.8181H269.532V20.7878H271.528V31.8181H274.19V20.7878H276.188V31.8181H279.514V20.7878H334.087L347.396 11.0302H381.338L384 12.7272L386.661 11.0302H391.321L401.303 17.3938L419.937 5.51506H431.916L441.234 11.4544H771.993L774.656 9.33324L770.663 6.78778H779.314L775.986 9.33324L784.638 13.5757L790.628 11.0302H990.946L992.944 12.3029L994.939 11.0302H1000.26L1010.25 17.3938L1036.2 0.848389L1049.51 9.33324H1235.19L1237.19 8.06051L1232.53 5.09081H1242.51L1238.52 7.63627L1247.83 13.5757L1254.49 9.33324H1336.35L1345 14.8484H1382.27L1396.24 5.9393H1436.83L1443.5 1.69687L1458.8 11.4544H1549.31L1552.63 13.5757L1555.97 11.4544H1918V54.7272H1.99609V31.8181Z" fill="#ffefed"/>
<path d="M384 12.7272L381.338 11.0302H347.396L334.087 20.7878H279.514V31.8181H276.188V20.7878H274.19V31.8181H271.528V20.7878H269.532V31.8181H265.539V20.7878H263.542V31.8181H260.881V20.7878H256.221V31.8181H253.56V20.7878H250.898V31.8181H249.567V20.7878H248.235V31.8181H240.914V20.7878H238.918V31.8181H236.256V20.7878H234.26V31.8181H1.99609V54.7272H1918V11.4544H1555.97L1552.63 13.5757M384 12.7272L380.007 15.2726H387.993L384 12.7272ZM384 12.7272L386.661 11.0302H391.321L401.303 17.3938L419.937 5.51506H431.916L441.234 11.4544H771.993L774.656 9.33324L770.663 6.78778H779.314L775.986 9.33324L784.638 13.5757L790.628 11.0302H990.946L992.944 12.3029M1552.63 13.5757L1549.31 11.4544H1458.8L1443.5 1.69687L1436.83 5.9393H1396.24L1382.27 14.8484H1345L1336.35 9.33324H1254.49L1247.83 13.5757L1238.52 7.63627L1242.51 5.09081H1232.53L1237.19 8.06051L1235.19 9.33324H1049.51L1036.2 0.848389L1010.25 17.3938L1000.26 11.0302H994.939L992.944 12.3029M1552.63 13.5757L1546.64 17.3938H1558.63L1552.63 13.5757ZM992.944 12.3029L989.616 14.8484H996.27L992.944 12.3029Z" stroke="#ffefed" stroke-width="1.08897"/>
</g>
<defs>
<clipPath id="clip0_171_1279">
<rect width="1920" height="56" fill="white"/>
</clipPath>
</defs>
</svg>
